<svg xmlns="http://www.w3.org/2000/svg" xmlns:xlink="http://www.w3.org/1999/xlink" viewBox="0 0 128 115.03"><defs><style>.cls-1{fill:none;}.cls-2{clip-path:url(#clip-path);}.cls-3{fill:#6a737d;}.cls-4{fill:#616a73;}.cls-5{fill:#fff;}</style><clipPath id="clip-path" transform="translate(0)"><rect class="cls-1" width="128" height="115.03"/></clipPath></defs><title>Asset 1</title><g id="Layer_2" data-name="Layer 2"><g id="Layer_1-2" data-name="Layer 1"><g class="cls-2"><path class="cls-3" d="M126.47,51.62,100.17,5.88A11.56,11.56,0,0,0,90.31,0H37.7a11.55,11.55,0,0,0-9.86,5.88L1.53,51.5a11.48,11.48,0,0,0,0,11.44l26.3,46A11.77,11.77,0,0,0,37.69,115H90.3a11.73,11.73,0,0,0,9.87-6.06l26.3-45.74a11.73,11.73,0,0,0,0-11.61" transform="translate(0)"/><path class="cls-4" d="M64,36.93,49.07,42.5l-5.77,15,4.64,16.73L88.71,115H90.3a11.73,11.73,0,0,0,9.87-6.06L117.7,78.45,80.62,41.38Z" transform="translate(0)"/><path class="cls-5" d="M64,75.1A17.6,17.6,0,1,1,81.6,57.5,17.6,17.6,0,0,1,64,75.1m0-40.8A23.19,23.19,0,1,0,87.19,57.5,23.19,23.19,0,0,0,64,34.3Z" transform="translate(0)"/><path class="cls-5" d="M53,56.6v7.21a12.79,12.79,0,0,0,4.38,4.48V56.6Z" transform="translate(0)"/><path class="cls-5" d="M61.67,50.5V69.94a11.77,11.77,0,0,0,4.38,0V50.5Z" transform="translate(0)"/><path class="cls-5" d="M70.77,59.6v8.56a12.79,12.79,0,0,0,4.38-4.66V59.6Z" transform="translate(0)"/><path class="cls-5" d="M80.69,71.79l-2.4,2.41a1.09,1.09,0,0,0,0,1.53l9.11,9.11a1.09,1.09,0,0,0,1.54,0l2.4-2.4a1.09,1.09,0,0,0,0-1.53l-9.12-9.12a1.09,1.09,0,0,0-1.53,0" transform="translate(0)"/></g></g></g></svg>